<?xml version="1.0" encoding="UTF-8" standalone="no"?>
<svg
   xmlns:dc="http://purl.org/dc/elements/1.1/"
   xmlns:cc="http://creativecommons.org/ns#"
   xmlns:rdf="http://www.w3.org/1999/02/22-rdf-syntax-ns#"
   xmlns:svg="http://www.w3.org/2000/svg"
   xmlns="http://www.w3.org/2000/svg"
   xmlns:sodipodi="http://sodipodi.sourceforge.net/DTD/sodipodi-0.dtd"
   xmlns:inkscape="http://www.inkscape.org/namespaces/inkscape"
   class="icon icon-tabler icon-tabler-temperature"
   width="24"
   height="24"
   viewBox="0 0 24 24"
   stroke-width="2"
   stroke="currentColor"
   fill="none"
   stroke-linecap="round"
   stroke-linejoin="round"
   version="1.1"
   id="svg872"
   sodipodi:docname="section_temperature.svg"
   inkscape:version="0.92.3 (2405546, 2018-03-11)">
  <metadata
     id="metadata878">
    <rdf:RDF>
      <cc:Work
         rdf:about="">
        <dc:format>image/svg+xml</dc:format>
        <dc:type
           rdf:resource="http://purl.org/dc/dcmitype/StillImage" />
      </cc:Work>
    </rdf:RDF>
  </metadata>
  <defs
     id="defs876" />
  <sodipodi:namedview
     pagecolor="#ffffff"
     bordercolor="#666666"
     borderopacity="1"
     objecttolerance="10"
     gridtolerance="10"
     guidetolerance="10"
     inkscape:pageopacity="0"
     inkscape:pageshadow="2"
     inkscape:window-width="1863"
     inkscape:window-height="895"
     id="namedview874"
     showgrid="false"
     inkscape:zoom="28.416667"
     inkscape:cx="12"
     inkscape:cy="12"
     inkscape:window-x="57"
     inkscape:window-y="27"
     inkscape:window-maximized="1"
     inkscape:current-layer="svg872" />
  <path
     stroke="none"
     d="M0 0h24v24H0z"
     id="path866" />
  <path
     d="M10 13.5a4 4 0 1 0 4 0v-8.5a2 2 0 0 0 -4 0v8.5"
     id="path868" />
  <line
     x1="10"
     y1="9"
     x2="14"
     y2="9"
     id="line870" />
  <path
     style="opacity:1;fill:#b12113;fill-opacity:1;stroke:#000000;stroke-width:0.07035907;stroke-miterlimit:4;stroke-dasharray:none;stroke-opacity:1"
     d="M 11.313783,19.86484 C 10.892893,19.750395 10.667206,19.65033 10.34719,19.436275 9.7259749,19.020752 9.3080636,18.433284 9.110164,17.697361 9.0199014,17.361704 9.0025328,16.692812 9.0754408,16.360117 c 0.1733304,-0.790944 0.6447501,-1.463556 1.3513442,-1.92807 0.323197,-0.212469 0.481718,-0.40089 0.552931,-0.657225 0.02055,-0.07398 0.03463,-0.862325 0.03475,-1.945496 l 1.97e-4,-1.821115 H 12 12.985337 l 2.11e-4,1.821115 c 1.06e-4,1.083171 0.0142,1.871515 0.03475,1.945496 0.07106,0.255772 0.22857,0.442339 0.563709,0.667687 0.715759,0.481274 1.166952,1.126633 1.340667,1.917608 0.07161,0.326078 0.05415,0.999494 -0.03468,1.337244 -0.262769,0.999144 -0.996625,1.776476 -1.986741,2.104444 -0.288379,0.09552 -0.376725,0.108087 -0.832863,0.118438 -0.417852,0.0095 -0.554877,-5.53e-4 -0.756598,-0.0554 z"
     id="path880"
     inkscape:connector-curvature="0" />
</svg>
