<?xml version="1.0" encoding="UTF-8" standalone="no"?>
<svg
   xmlns:dc="http://purl.org/dc/elements/1.1/"
   xmlns:cc="http://creativecommons.org/ns#"
   xmlns:rdf="http://www.w3.org/1999/02/22-rdf-syntax-ns#"
   xmlns:svg="http://www.w3.org/2000/svg"
   xmlns="http://www.w3.org/2000/svg"
   xmlns:sodipodi="http://sodipodi.sourceforge.net/DTD/sodipodi-0.dtd"
   xmlns:inkscape="http://www.inkscape.org/namespaces/inkscape"
   class="icon icon-tabler icon-tabler-brightness-up"
   width="24"
   height="24"
   viewBox="0 0 24 24"
   stroke-width="2"
   stroke="currentColor"
   fill="none"
   stroke-linecap="round"
   stroke-linejoin="round"
   version="1.1"
   id="svg967"
   sodipodi:docname="section_lighting.svg"
   inkscape:version="0.92.3 (2405546, 2018-03-11)">
  <metadata
     id="metadata973">
    <rdf:RDF>
      <cc:Work
         rdf:about="">
        <dc:format>image/svg+xml</dc:format>
        <dc:type
           rdf:resource="http://purl.org/dc/dcmitype/StillImage" />
      </cc:Work>
    </rdf:RDF>
  </metadata>
  <defs
     id="defs971" />
  <sodipodi:namedview
     pagecolor="#ffffff"
     bordercolor="#666666"
     borderopacity="1"
     objecttolerance="10"
     gridtolerance="10"
     guidetolerance="10"
     inkscape:pageopacity="0"
     inkscape:pageshadow="2"
     inkscape:window-width="1863"
     inkscape:window-height="895"
     id="namedview969"
     showgrid="false"
     inkscape:zoom="9.8333333"
     inkscape:cx="-1.4745763"
     inkscape:cy="12"
     inkscape:window-x="57"
     inkscape:window-y="27"
     inkscape:window-maximized="1"
     inkscape:current-layer="svg967" />
  <path
     stroke="none"
     d="M0 0h24v24H0z"
     id="path947" />
  <circle
     cx="12"
     cy="12"
     r="3"
     id="circle949" />
  <line
     x1="12"
     y1="5"
     x2="12"
     y2="3"
     id="line951" />
  <line
     x1="17"
     y1="7"
     x2="18.4"
     y2="5.6"
     id="line953" />
  <line
     x1="19"
     y1="12"
     x2="21"
     y2="12"
     id="line955" />
  <line
     x1="17"
     y1="17"
     x2="18.4"
     y2="18.4"
     id="line957" />
  <line
     x1="12"
     y1="19"
     x2="12"
     y2="21"
     id="line959" />
  <line
     x1="7"
     y1="17"
     x2="5.6"
     y2="18.4"
     id="line961" />
  <line
     x1="6"
     y1="12"
     x2="4"
     y2="12"
     id="line963" />
  <line
     x1="7"
     y1="7"
     x2="5.6"
     y2="5.6"
     id="line965" />
  <path
     style="opacity:1;fill:#e2dc63;fill-opacity:1;stroke:#000000;stroke-width:0.20332578;stroke-miterlimit:4;stroke-dasharray:none;stroke-opacity:1"
     d="m 11.389831,13.8434 c -0.573032,-0.234325 -0.756399,-0.382852 -1.003789,-0.813067 -0.4841356,-0.84192 -0.4313904,-1.595231 0.158757,-2.267372 0.809453,-0.9219154 1.933523,-0.965638 2.790616,-0.108545 0.720166,0.720166 0.803387,1.550662 0.243804,2.433032 -0.443075,0.698657 -1.465879,1.05181 -2.189388,0.755952 z"
     id="path1518"
     inkscape:connector-curvature="0" />
</svg>
